0
SECTION
2
HEADER
9
$ACADVER
1
AC1009
9
$INSUNITS
70
4
0
ENDSEC
0
SECTION
2
TABLES
0
TABLE
2
LTYPE
70
1
0
LTYPE
2
CONTINUOUS
70
64
3
Solid line
72
65
73
0
40
0.0
0
ENDTAB
0
TABLE
2
LAYER
70
5
0
LAYER
2
CUT_OUTLINE
70
64
62
1
6
CONTINUOUS
0
LAYER
2
PILOT_HOLES
70
64
62
5
6
CONTINUOUS
0
LAYER
2
DOOR_OUTLINE
70
64
62
7
6
CONTINUOUS
0
LAYER
2
REF_AIR_HOLES
70
64
62
8
6
CONTINUOUS
0
LAYER
2
REF_SCREW_BOSSES
70
64
62
4
6
CONTINUOUS
0
ENDTAB
0
ENDSEC
0
SECTION
2
ENTITIES
0
LINE
8
DOOR_OUTLINE
10
8.0000
20
0.0000
30
0.0
11
145.0000
21
0.0000
31
0.0
0
LINE
8
DOOR_OUTLINE
10
153.0000
20
8.0000
30
0.0
11
153.0000
21
82.0000
31
0.0
0
LINE
8
DOOR_OUTLINE
10
145.0000
20
90.0000
30
0.0
11
8.0000
21
90.0000
31
0.0
0
LINE
8
DOOR_OUTLINE
10
0.0000
20
82.0000
30
0.0
11
0.0000
21
8.0000
31
0.0
0
ARC
8
DOOR_OUTLINE
10
145.0000
20
8.0000
30
0.0
40
8.0000
50
270.00
51
360.00
0
ARC
8
DOOR_OUTLINE
10
145.0000
20
82.0000
30
0.0
40
8.0000
50
0.00
51
90.00
0
ARC
8
DOOR_OUTLINE
10
8.0000
20
82.0000
30
0.0
40
8.0000
50
90.00
51
180.00
0
ARC
8
DOOR_OUTLINE
10
8.0000
20
8.0000
30
0.0
40
8.0000
50
180.00
51
270.00
0
LINE
8
REF_AIR_HOLES
10
70.8000
20
39.8000
30
0.0
11
123.9000
21
39.8000
31
0.0
0
LINE
8
REF_AIR_HOLES
10
125.4000
20
41.3000
30
0.0
11
125.4000
21
42.3000
31
0.0
0
LINE
8
REF_AIR_HOLES
10
123.9000
20
43.8000
30
0.0
11
70.8000
21
43.8000
31
0.0
0
LINE
8
REF_AIR_HOLES
10
69.3000
20
42.3000
30
0.0
11
69.3000
21
41.3000
31
0.0
0
ARC
8
REF_AIR_HOLES
10
123.9000
20
41.3000
30
0.0
40
1.5000
50
270.00
51
360.00
0
ARC
8
REF_AIR_HOLES
10
123.9000
20
42.3000
30
0.0
40
1.5000
50
0.00
51
90.00
0
ARC
8
REF_AIR_HOLES
10
70.8000
20
42.3000
30
0.0
40
1.5000
50
90.00
51
180.00
0
ARC
8
REF_AIR_HOLES
10
70.8000
20
41.3000
30
0.0
40
1.5000
50
180.00
51
270.00
0
LINE
8
REF_AIR_HOLES
10
70.8000
20
32.2000
30
0.0
11
123.9000
21
32.2000
31
0.0
0
LINE
8
REF_AIR_HOLES
10
125.4000
20
33.7000
30
0.0
11
125.4000
21
34.7000
31
0.0
0
LINE
8
REF_AIR_HOLES
10
123.9000
20
36.2000
30
0.0
11
70.8000
21
36.2000
31
0.0
0
LINE
8
REF_AIR_HOLES
10
69.3000
20
34.7000
30
0.0
11
69.3000
21
33.7000
31
0.0
0
ARC
8
REF_AIR_HOLES
10
123.9000
20
33.7000
30
0.0
40
1.5000
50
270.00
51
360.00
0
ARC
8
REF_AIR_HOLES
10
123.9000
20
34.7000
30
0.0
40
1.5000
50
0.00
51
90.00
0
ARC
8
REF_AIR_HOLES
10
70.8000
20
34.7000
30
0.0
40
1.5000
50
90.00
51
180.00
0
ARC
8
REF_AIR_HOLES
10
70.8000
20
33.7000
30
0.0
40
1.5000
50
180.00
51
270.00
0
LINE
8
REF_AIR_HOLES
10
70.8000
20
24.5000
30
0.0
11
123.9000
21
24.5000
31
0.0
0
LINE
8
REF_AIR_HOLES
10
125.4000
20
26.0000
30
0.0
11
125.4000
21
27.0000
31
0.0
0
LINE
8
REF_AIR_HOLES
10
123.9000
20
28.5000
30
0.0
11
70.8000
21
28.5000
31
0.0
0
LINE
8
REF_AIR_HOLES
10
69.3000
20
27.0000
30
0.0
11
69.3000
21
26.0000
31
0.0
0
ARC
8
REF_AIR_HOLES
10
123.9000
20
26.0000
30
0.0
40
1.5000
50
270.00
51
360.00
0
ARC
8
REF_AIR_HOLES
10
123.9000
20
27.0000
30
0.0
40
1.5000
50
0.00
51
90.00
0
ARC
8
REF_AIR_HOLES
10
70.8000
20
27.0000
30
0.0
40
1.5000
50
90.00
51
180.00
0
ARC
8
REF_AIR_HOLES
10
70.8000
20
26.0000
30
0.0
40
1.5000
50
180.00
51
270.00
0
CIRCLE
8
REF_SCREW_BOSSES
10
53.7000
20
8.7000
30
0.0
40
4.0000
0
CIRCLE
8
REF_SCREW_HOLES
10
53.7000
20
8.7000
30
0.0
40
1.5000
0
CIRCLE
8
REF_SCREW_BOSSES
10
98.6000
20
7.5000
30
0.0
40
4.0000
0
CIRCLE
8
REF_SCREW_HOLES
10
98.6000
20
7.5000
30
0.0
40
1.5000
0
CIRCLE
8
REF_SCREW_BOSSES
10
144.7000
20
5.6000
30
0.0
40
4.0000
0
CIRCLE
8
REF_SCREW_HOLES
10
144.7000
20
5.6000
30
0.0
40
1.5000
0
CIRCLE
8
REF_SCREW_BOSSES
10
5.4000
20
10.2000
30
0.0
40
4.0000
0
CIRCLE
8
REF_SCREW_HOLES
10
5.4000
20
10.2000
30
0.0
40
1.5000
0
LINE
8
CUT_OUTLINE
10
50.0000
20
15.5000
30
0.0
11
140.0000
21
15.5000
31
0.0
0
LINE
8
CUT_OUTLINE
10
143.0000
20
18.5000
30
0.0
11
143.0000
21
75.5000
31
0.0
0
LINE
8
CUT_OUTLINE
10
140.0000
20
78.5000
30
0.0
11
50.0000
21
78.5000
31
0.0
0
LINE
8
CUT_OUTLINE
10
47.0000
20
75.5000
30
0.0
11
47.0000
21
18.5000
31
0.0
0
ARC
8
CUT_OUTLINE
10
140.0000
20
18.5000
30
0.0
40
3.0000
50
270.00
51
360.00
0
ARC
8
CUT_OUTLINE
10
140.0000
20
75.5000
30
0.0
40
3.0000
50
0.00
51
90.00
0
ARC
8
CUT_OUTLINE
10
50.0000
20
75.5000
30
0.0
40
3.0000
50
90.00
51
180.00
0
ARC
8
CUT_OUTLINE
10
50.0000
20
18.5000
30
0.0
40
3.0000
50
180.00
51
270.00
0
ENDSEC
0
EOF
